<svg xmlns="http://www.w3.org/2000/svg" width="960" height="360" viewBox="0 0 960 360"><line x1="60.00" y1="300.00" x2="430.00" y2="300.00" stroke="#000" stroke-width="1" /><line x1="60.00" y1="60.00" x2="60.00" y2="300.00" stroke="#000" stroke-width="1" /><text x="245.00" y="45.00" font-size="16" text-anchor="middle" font-family="sans-serif">Average return per episode</text><text x="15.00" y="180.00" font-size="14" text-anchor="middle" font-family="sans-serif">Return</text><line x1="60.00" y1="300.00" x2="430.00" y2="300.00" stroke="#000000" stroke-width="1" /><text x="50.00" y="304.00" font-size="12" text-anchor="end" font-family="sans-serif">-27.9</text><line x1="60.00" y1="240.00" x2="430.00" y2="240.00" stroke="#cccccc" stroke-width="0.5" /><text x="50.00" y="244.00" font-size="12" text-anchor="end" font-family="sans-serif">-21.7</text><line x1="60.00" y1="180.00" x2="430.00" y2="180.00" stroke="#cccccc" stroke-width="0.5" /><text x="50.00" y="184.00" font-size="12" text-anchor="end" font-family="sans-serif">-15.5</text><line x1="60.00" y1="120.00" x2="430.00" y2="120.00" stroke="#cccccc" stroke-width="0.5" /><text x="50.00" y="124.00" font-size="12" text-anchor="end" font-family="sans-serif">-9.3</text><line x1="60.00" y1="60.00" x2="430.00" y2="60.00" stroke="#000000" stroke-width="1" /><text x="50.00" y="64.00" font-size="12" text-anchor="end" font-family="sans-serif">-3.2</text><line x1="60.00" y1="300.00" x2="60.00" y2="305.00" stroke="#000" stroke-width="1" /><text x="60.00" y="320.00" font-size="12" text-anchor="middle" font-family="sans-serif">1</text><line x1="244.07" y1="300.00" x2="244.07" y2="305.00" stroke="#000" stroke-width="1" /><text x="244.07" y="320.00" font-size="12" text-anchor="middle" font-family="sans-serif">100</text><line x1="430.00" y1="300.00" x2="430.00" y2="305.00" stroke="#000" stroke-width="1" /><text x="430.00" y="320.00" font-size="12" text-anchor="middle" font-family="sans-serif">200</text><polyline points="60.00,129.35 61.86,193.91 63.72,242.23 65.58,257.64 67.44,300.00 69.30,287.01 71.16,276.11 73.02,250.47 74.87,277.32 76.73,248.53 78.59,270.48 80.45,247.95 82.31,237.43 84.17,233.60 86.03,236.61 87.89,232.29 89.75,219.21 91.61,220.32 93.47,212.62 95.33,212.62 97.19,216.54 99.05,205.59 100.90,208.11 102.76,211.79 104.62,212.08 106.48,198.03 108.34,200.74 110.20,202.73 112.06,197.01 113.92,199.77 115.78,195.36 117.64,198.56 119.50,196.04 121.36,195.12 123.22,193.81 125.08,189.94 126.93,195.56 128.79,193.67 130.65,192.60 132.51,194.35 134.37,192.41 136.23,183.83 138.09,186.11 139.95,187.32 141.81,185.28 143.67,185.91 145.53,183.97 147.39,181.79 149.25,184.07 151.11,181.74 152.96,182.67 154.82,183.63 156.68,180.97 158.54,182.47 160.40,181.84 162.26,182.52 164.12,183.15 165.98,182.57 167.84,183.63 169.70,181.70 171.56,180.68 173.42,180.63 175.28,181.70 177.14,179.90 178.99,180.97 180.85,180.44 182.71,178.89 184.57,180.73 186.43,179.95 188.29,180.58 190.15,180.05 192.01,180.97 193.87,179.13 195.73,178.45 197.59,181.36 199.45,179.42 201.31,179.13 203.17,177.96 205.03,179.85 206.88,179.90 208.74,179.66 210.60,180.05 212.46,179.03 214.32,180.24 216.18,178.50 218.04,177.14 219.90,178.79 221.76,177.87 223.62,178.50 225.48,178.69 227.34,178.45 229.20,178.93 231.06,178.69 232.91,179.42 234.77,179.76 236.63,178.74 238.49,178.69 240.35,178.89 242.21,177.38 244.07,178.79 245.93,177.14 247.79,178.35 249.65,177.53 251.51,176.75 253.37,178.01 255.23,178.40 257.09,178.06 258.94,177.72 260.80,176.56 262.66,177.92 264.52,177.09 266.38,179.22 268.24,177.04 270.10,179.22 271.96,176.41 273.82,177.19 275.68,177.24 277.54,177.82 279.40,178.69 281.26,177.92 283.12,171.52 284.97,176.80 286.83,177.72 288.69,177.09 290.55,176.90 292.41,176.32 294.27,178.89 296.13,177.09 297.99,177.72 299.85,176.85 301.71,177.29 303.57,176.66 305.43,177.38 307.29,177.43 309.15,177.24 311.01,176.12 312.86,176.46 314.72,176.85 316.58,176.27 318.44,176.07 320.30,177.19 322.16,177.09 324.02,177.24 325.88,177.48 327.74,176.51 329.60,175.35 331.46,176.51 333.32,176.22 335.18,176.61 337.04,177.29 338.89,176.22 340.75,168.03 342.61,177.96 344.47,176.46 346.33,176.56 348.19,177.67 350.05,176.12 351.91,172.34 353.77,178.16 355.63,166.53 357.49,167.01 359.35,168.61 361.21,166.67 363.07,168.13 364.92,167.40 366.78,159.06 368.64,158.53 370.50,157.46 372.36,158.38 374.22,156.79 376.08,158.00 377.94,157.46 379.80,157.32 381.66,158.53 383.52,156.35 385.38,157.27 387.24,156.98 389.10,157.85 390.95,157.17 392.81,157.03 394.67,157.56 396.53,158.19 398.39,156.64 400.25,158.24 402.11,156.45 403.97,156.93 405.83,158.00 407.69,156.79 409.55,156.30 411.41,157.03 413.27,158.24 415.13,156.49 416.98,156.69 418.84,157.42 420.70,156.74 422.56,156.40 424.42,156.54 426.28,157.17 428.14,157.56 430.00,156.74" fill="none" stroke="#1f77b4" stroke-width="2" /><g transform="translate(300.0,80)"><line x1="0" y1="0" x2="18" y2="0" stroke="#1f77b4" stroke-width="2" /><text x="22" y="4" font-size="12" font-family="sans-serif">Shared features</text></g><polyline points="60.00,139.24 61.86,146.85 63.72,119.95 65.58,119.08 67.44,115.88 69.30,116.95 71.16,100.13 73.02,105.99 74.87,96.54 76.73,103.96 78.59,78.85 80.45,84.38 82.31,82.58 84.17,79.48 86.03,83.46 87.89,79.53 89.75,77.98 91.61,76.87 93.47,78.22 95.33,78.13 97.19,72.89 99.05,71.97 100.90,71.29 102.76,71.10 104.62,70.47 106.48,70.23 108.34,69.60 110.20,71.87 112.06,70.27 113.92,69.50 115.78,69.89 117.64,67.46 119.50,68.00 121.36,66.54 123.22,67.32 125.08,67.71 126.93,67.17 128.79,66.79 130.65,65.28 132.51,66.49 134.37,66.83 136.23,66.93 138.09,64.56 139.95,65.96 141.81,64.75 143.67,66.06 145.53,65.28 147.39,64.65 149.25,64.89 151.11,64.46 152.96,64.94 154.82,65.23 156.68,66.06 158.54,63.93 160.40,64.02 162.26,64.36 164.12,64.17 165.98,63.34 167.84,64.12 169.70,63.97 171.56,63.68 173.42,63.78 175.28,65.43 177.14,63.78 178.99,63.83 180.85,63.93 182.71,63.93 184.57,63.68 186.43,63.39 188.29,63.63 190.15,63.44 192.01,64.26 193.87,63.59 195.73,63.68 197.59,63.34 199.45,62.57 201.31,63.10 203.17,63.00 205.03,63.49 206.88,63.00 208.74,63.54 210.60,63.73 212.46,62.71 214.32,62.62 216.18,62.57 218.04,62.37 219.90,63.15 221.76,62.76 223.62,61.89 225.48,62.62 227.34,63.25 229.20,62.86 231.06,62.28 232.91,62.96 234.77,61.99 236.63,61.79 238.49,63.49 240.35,61.79 242.21,62.47 244.07,62.28 245.93,62.28 247.79,62.37 249.65,62.28 251.51,62.57 253.37,62.47 255.23,62.76 257.09,61.26 258.94,62.47 260.80,61.74 262.66,62.42 264.52,61.89 266.38,62.18 268.24,62.23 270.10,61.55 271.96,61.02 273.82,62.57 275.68,62.23 277.54,61.89 279.40,61.70 281.26,61.84 283.12,60.82 284.97,61.65 286.83,62.33 288.69,61.21 290.55,61.07 292.41,62.96 294.27,60.92 296.13,61.70 297.99,61.60 299.85,62.42 301.71,61.99 303.57,61.16 305.43,62.33 307.29,61.84 309.15,61.26 311.01,62.13 312.86,61.21 314.72,62.57 316.58,60.97 318.44,61.50 320.30,62.23 322.16,62.08 324.02,60.53 325.88,61.36 327.74,61.89 329.60,60.92 331.46,61.16 333.32,61.50 335.18,60.97 337.04,60.63 338.89,61.36 340.75,60.82 342.61,61.31 344.47,61.07 346.33,60.00 348.19,61.41 350.05,60.97 351.91,62.04 353.77,61.45 355.63,60.82 357.49,60.92 359.35,60.73 361.21,61.36 363.07,60.97 364.92,62.18 366.78,62.08 368.64,61.99 370.50,60.63 372.36,61.65 374.22,60.68 376.08,60.82 377.94,61.07 379.80,62.04 381.66,60.73 383.52,60.58 385.38,60.97 387.24,60.97 389.10,61.41 390.95,60.48 392.81,60.34 394.67,60.39 396.53,60.34 398.39,61.26 400.25,61.07 402.11,60.63 403.97,60.05 405.83,60.97 407.69,62.23 409.55,60.73 411.41,60.10 413.27,61.26 415.13,60.68 416.98,60.39 418.84,60.97 420.70,60.48 422.56,60.44 424.42,60.29 426.28,61.21 428.14,60.29 430.00,60.58" fill="none" stroke="#ff7f0e" stroke-width="2" /><g transform="translate(300.0,100)"><line x1="0" y1="0" x2="18" y2="0" stroke="#ff7f0e" stroke-width="2" /><text x="22" y="4" font-size="12" font-family="sans-serif">Tabular features</text></g><line x1="470.00" y1="300.00" x2="840.00" y2="300.00" stroke="#000" stroke-width="1" /><line x1="470.00" y1="60.00" x2="470.00" y2="300.00" stroke="#000" stroke-width="1" /><text x="655.00" y="45.00" font-size="16" text-anchor="middle" font-family="sans-serif">Average episode length</text><text x="425.00" y="180.00" font-size="14" text-anchor="middle" font-family="sans-serif">Steps</text><line x1="470.00" y1="300.00" x2="840.00" y2="300.00" stroke="#000000" stroke-width="1" /><text x="460.00" y="304.00" font-size="12" text-anchor="end" font-family="sans-serif">3.2</text><line x1="470.00" y1="240.00" x2="840.00" y2="240.00" stroke="#cccccc" stroke-width="0.5" /><text x="460.00" y="244.00" font-size="12" text-anchor="end" font-family="sans-serif">9.3</text><line x1="470.00" y1="180.00" x2="840.00" y2="180.00" stroke="#cccccc" stroke-width="0.5" /><text x="460.00" y="184.00" font-size="12" text-anchor="end" font-family="sans-serif">15.5</text><line x1="470.00" y1="120.00" x2="840.00" y2="120.00" stroke="#cccccc" stroke-width="0.5" /><text x="460.00" y="124.00" font-size="12" text-anchor="end" font-family="sans-serif">21.7</text><line x1="470.00" y1="60.00" x2="840.00" y2="60.00" stroke="#000000" stroke-width="1" /><text x="460.00" y="64.00" font-size="12" text-anchor="end" font-family="sans-serif">27.9</text><line x1="470.00" y1="300.00" x2="470.00" y2="305.00" stroke="#000" stroke-width="1" /><text x="470.00" y="320.00" font-size="12" text-anchor="middle" font-family="sans-serif">1</text><line x1="654.07" y1="300.00" x2="654.07" y2="305.00" stroke="#000" stroke-width="1" /><text x="654.07" y="320.00" font-size="12" text-anchor="middle" font-family="sans-serif">100</text><line x1="840.00" y1="300.00" x2="840.00" y2="305.00" stroke="#000" stroke-width="1" /><text x="840.00" y="320.00" font-size="12" text-anchor="middle" font-family="sans-serif">200</text><polyline points="470.00,230.65 471.86,166.09 473.72,117.77 475.58,102.36 477.44,60.00 479.30,72.99 481.16,83.89 483.02,109.53 484.87,82.68 486.73,111.47 488.59,89.52 490.45,112.05 492.31,122.57 494.17,126.40 496.03,123.39 497.89,127.71 499.75,140.79 501.61,139.68 503.47,147.38 505.33,147.38 507.19,143.46 509.05,154.41 510.90,151.89 512.76,148.21 514.62,147.92 516.48,161.97 518.34,159.26 520.20,157.27 522.06,162.99 523.92,160.23 525.78,164.64 527.64,161.44 529.50,163.96 531.36,164.88 533.22,166.19 535.08,170.06 536.93,164.44 538.79,166.33 540.65,167.40 542.51,165.65 544.37,167.59 546.23,176.17 548.09,173.89 549.95,172.68 551.81,174.72 553.67,174.09 555.53,176.03 557.39,178.21 559.25,175.93 561.11,178.26 562.96,177.33 564.82,176.37 566.68,179.03 568.54,177.53 570.40,178.16 572.26,177.48 574.12,176.85 575.98,177.43 577.84,176.37 579.70,178.30 581.56,179.32 583.42,179.37 585.28,178.30 587.14,180.10 588.99,179.03 590.85,179.56 592.71,181.11 594.57,179.27 596.43,180.05 598.29,179.42 600.15,179.95 602.01,179.03 603.87,180.87 605.73,181.55 607.59,178.64 609.45,180.58 611.31,180.87 613.17,182.04 615.03,180.15 616.88,180.10 618.74,180.34 620.60,179.95 622.46,180.97 624.32,179.76 626.18,181.50 628.04,182.86 629.90,181.21 631.76,182.13 633.62,181.50 635.48,181.31 637.34,181.55 639.20,181.07 641.06,181.31 642.91,180.58 644.77,180.24 646.63,181.26 648.49,181.31 650.35,181.11 652.21,182.62 654.07,181.21 655.93,182.86 657.79,181.65 659.65,182.47 661.51,183.25 663.37,181.99 665.23,181.60 667.09,181.94 668.94,182.28 670.80,183.44 672.66,182.08 674.52,182.91 676.38,180.78 678.24,182.96 680.10,180.78 681.96,183.59 683.82,182.81 685.68,182.76 687.54,182.18 689.40,181.31 691.26,182.08 693.12,188.48 694.97,183.20 696.83,182.28 698.69,182.91 700.55,183.10 702.41,183.68 704.27,181.11 706.13,182.91 707.99,182.28 709.85,183.15 711.71,182.71 713.57,183.34 715.43,182.62 717.29,182.57 719.15,182.76 721.01,183.88 722.86,183.54 724.72,183.15 726.58,183.73 728.44,183.93 730.30,182.81 732.16,182.91 734.02,182.76 735.88,182.52 737.74,183.49 739.60,184.65 741.46,183.49 743.32,183.78 745.18,183.39 747.04,182.71 748.89,183.78 750.75,191.97 752.61,182.04 754.47,183.54 756.33,183.44 758.19,182.33 760.05,183.88 761.91,187.66 763.77,181.84 765.63,193.47 767.49,192.99 769.35,191.39 771.21,193.33 773.07,191.87 774.92,192.60 776.78,200.94 778.64,201.47 780.50,202.54 782.36,201.62 784.22,203.21 786.08,202.00 787.94,202.54 789.80,202.68 791.66,201.47 793.52,203.65 795.38,202.73 797.24,203.02 799.10,202.15 800.95,202.83 802.81,202.97 804.67,202.44 806.53,201.81 808.39,203.36 810.25,201.76 812.11,203.55 813.97,203.07 815.83,202.00 817.69,203.21 819.55,203.70 821.41,202.97 823.27,201.76 825.13,203.51 826.98,203.31 828.84,202.58 830.70,203.26 832.56,203.60 834.42,203.46 836.28,202.83 838.14,202.44 840.00,203.26" fill="none" stroke="#1f77b4" stroke-width="2" /><g transform="translate(710.0,80)"><line x1="0" y1="0" x2="18" y2="0" stroke="#1f77b4" stroke-width="2" /><text x="22" y="4" font-size="12" font-family="sans-serif">Shared features</text></g><polyline points="470.00,220.76 471.86,213.15 473.72,240.05 475.58,240.92 477.44,244.12 479.30,243.05 481.16,259.87 483.02,254.01 484.87,263.46 486.73,256.04 488.59,281.15 490.45,275.62 492.31,277.42 494.17,280.52 496.03,276.54 497.89,280.47 499.75,282.02 501.61,283.13 503.47,281.78 505.33,281.87 507.19,287.11 509.05,288.03 510.90,288.71 512.76,288.90 514.62,289.53 516.48,289.77 518.34,290.40 520.20,288.13 522.06,289.73 523.92,290.50 525.78,290.11 527.64,292.54 529.50,292.00 531.36,293.46 533.22,292.68 535.08,292.29 536.93,292.83 538.79,293.21 540.65,294.72 542.51,293.51 544.37,293.17 546.23,293.07 548.09,295.44 549.95,294.04 551.81,295.25 553.67,293.94 555.53,294.72 557.39,295.35 559.25,295.11 561.11,295.54 562.96,295.06 564.82,294.77 566.68,293.94 568.54,296.07 570.40,295.98 572.26,295.64 574.12,295.83 575.98,296.66 577.84,295.88 579.70,296.03 581.56,296.32 583.42,296.22 585.28,294.57 587.14,296.22 588.99,296.17 590.85,296.07 592.71,296.07 594.57,296.32 596.43,296.61 598.29,296.37 600.15,296.56 602.01,295.74 603.87,296.41 605.73,296.32 607.59,296.66 609.45,297.43 611.31,296.90 613.17,297.00 615.03,296.51 616.88,297.00 618.74,296.46 620.60,296.27 622.46,297.29 624.32,297.38 626.18,297.43 628.04,297.63 629.90,296.85 631.76,297.24 633.62,298.11 635.48,297.38 637.34,296.75 639.20,297.14 641.06,297.72 642.91,297.04 644.77,298.01 646.63,298.21 648.49,296.51 650.35,298.21 652.21,297.53 654.07,297.72 655.93,297.72 657.79,297.63 659.65,297.72 661.51,297.43 663.37,297.53 665.23,297.24 667.09,298.74 668.94,297.53 670.80,298.26 672.66,297.58 674.52,298.11 676.38,297.82 678.24,297.77 680.10,298.45 681.96,298.98 683.82,297.43 685.68,297.77 687.54,298.11 689.40,298.30 691.26,298.16 693.12,299.18 694.97,298.35 696.83,297.67 698.69,298.79 700.55,298.93 702.41,297.04 704.27,299.08 706.13,298.30 707.99,298.40 709.85,297.58 711.71,298.01 713.57,298.84 715.43,297.67 717.29,298.16 719.15,298.74 721.01,297.87 722.86,298.79 724.72,297.43 726.58,299.03 728.44,298.50 730.30,297.77 732.16,297.92 734.02,299.47 735.88,298.64 737.74,298.11 739.60,299.08 741.46,298.84 743.32,298.50 745.18,299.03 747.04,299.37 748.89,298.64 750.75,299.18 752.61,298.69 754.47,298.93 756.33,300.00 758.19,298.59 760.05,299.03 761.91,297.96 763.77,298.55 765.63,299.18 767.49,299.08 769.35,299.27 771.21,298.64 773.07,299.03 774.92,297.82 776.78,297.92 778.64,298.01 780.50,299.37 782.36,298.35 784.22,299.32 786.08,299.18 787.94,298.93 789.80,297.96 791.66,299.27 793.52,299.42 795.38,299.03 797.24,299.03 799.10,298.59 800.95,299.52 802.81,299.66 804.67,299.61 806.53,299.66 808.39,298.74 810.25,298.93 812.11,299.37 813.97,299.95 815.83,299.03 817.69,297.77 819.55,299.27 821.41,299.90 823.27,298.74 825.13,299.32 826.98,299.61 828.84,299.03 830.70,299.52 832.56,299.56 834.42,299.71 836.28,298.79 838.14,299.71 840.00,299.42" fill="none" stroke="#ff7f0e" stroke-width="2" /><g transform="translate(710.0,100)"><line x1="0" y1="0" x2="18" y2="0" stroke="#ff7f0e" stroke-width="2" /><text x="22" y="4" font-size="12" font-family="sans-serif">Tabular features</text></g></svg>